<?xml version="1.0" encoding="utf-8"?>
<!-- Generator: Adobe Illustrator 24.0.0, SVG Export Plug-In . SVG Version: 6.00 Build 0)  -->
<svg version="1.1" id="Layer_1" xmlns="http://www.w3.org/2000/svg" xmlns:xlink="http://www.w3.org/1999/xlink" x="0px" y="0px"
	 viewBox="0 0 512 512" style="enable-background:new 0 0 512 512;" xml:space="preserve">
<style type="text/css">
	.st0{fill:#9CEE69;}
	.st1{fill:#194100;}
</style>
<g>
	<path class="st0" d="M435.2,512H76.8C34.6,512,0,477.4,0,435.2V76.8C0,34.6,34.6,0,76.8,0h358.4C477.4,0,512,34.6,512,76.8v358.4
		C512,477.4,477.4,512,435.2,512z"/>
	<g>
		<g>
			<path class="st1" d="M406.3,331.1l6.5-3.3c5.1-2.6,9.2-6.9,11.8-12.4c7.9-16.9,13.5-35.1,16.3-54.3c1.3-8.6-1.8-17.4-8-22.7
				l-4.2-3.6c-9.4-8-16.7-18.5-21.2-30.6L365.9,93.2c-2.3-6.1-9.6-7.3-13.3-2.1c-0.2,0.3-0.5,0.7-0.7,1
				c-8.9,13.8-20.4,48.8-21.7,52.7c-0.1,0.2-0.2,0.5-0.3,0.7c-2.3,5.4-7,8.8-12.3,8.8h-61.4H256v-0.1h-0.2h-61.4
				c-5.3,0-10-3.4-12.3-8.8c-0.1-0.2-0.2-0.5-0.3-0.7c-1.3-3.9-12.8-38.9-21.7-52.7c-0.4-0.7-0.9-1.3-1.4-1.9
				c-3.8-4.8-10.9-3.4-13.1,2.5l-41.9,111.8c-4.5,12.1-11.9,22.6-21.2,30.6l-3.5,3c-6.2,5.2-9.3,13.8-8.1,22.4
				c2.9,19.7,8.6,38.5,16.8,55.8c2.6,5.4,6.7,9.8,11.8,12.3l5.5,2.8c6.6,3.4,11.5,9.7,13.6,17.3l3.4,12.5c1.4,5.1,4.1,9.7,7.8,13.2
				c33.2,31.4,77.4,50.6,126,50.7v0c0.1,0,0.1,0,0.2,0v0.1c0.1,0,0.1,0,0.2,0v0c48-0.1,91.7-18.8,124.8-49.6
				c3.7-3.5,6.5-8.1,7.9-13.3l3.7-13.6C394.8,340.8,399.7,334.5,406.3,331.1z"/>
		</g>
		<path class="st0" d="M275.8,312.6h-40.2c-5.3,0-9.5,4.7-9.5,10.5v0c0,5.8,4.3,10.5,9.5,10.5h0.7c5.3,0,9.5,4.7,9.5,10.5v6.7
			c0,5.8,4.3,10.5,9.5,10.5h0.7c5.3,0,9.5-4.7,9.5-10.5v-6.7c0-5.8,4.3-10.5,9.5-10.5h0.7c5.3,0,9.5-4.7,9.5-10.5v0
			C285.3,317.3,281.1,312.6,275.8,312.6z"/>
		<g>
			<g>
				<g>
					<path class="st0" d="M292.8,272.5l87.2-25c5.3-1.5,9.7,4.5,7.4,9.9c-6.7,15.3-21.6,38.8-50.5,42.1c-27.3,3.2-41-7.4-47.3-15.6
						C286.4,279.9,288.2,273.8,292.8,272.5z"/>
				</g>
				<g>
					<path class="st0" d="M218.6,272.5l-87.2-25c-5.3-1.5-9.7,4.5-7.4,9.9c6.7,15.3,21.6,38.8,50.5,42.1c27.3,3.2,41-7.4,47.3-15.6
						C224.9,279.9,223.1,273.8,218.6,272.5z"/>
				</g>
			</g>
		</g>
	</g>
</g>
</svg>
