<?xml version="1.0" encoding="utf-8"?>
<!-- Generator: Adobe Illustrator 24.0.0, SVG Export Plug-In . SVG Version: 6.00 Build 0)  -->
<svg version="1.1" id="Layer_1" xmlns="http://www.w3.org/2000/svg" xmlns:xlink="http://www.w3.org/1999/xlink" x="0px" y="0px"
	 viewBox="0 0 200 200" style="enable-background:new 0 0 200 200;" xml:space="preserve">
<style type="text/css">
	.st0{fill:#9CEE69;}
	.st1{fill:#194100;}
</style>
<g>
	<path class="st0" d="M163.4,190.5H36.7c-14.9,0-27.2-12.2-27.2-27.1V36.7c0-14.9,12.2-27.2,27.2-27.2h126.7
		c14.9,0,27.1,12.2,27.1,27.2v126.7C190.5,178.3,178.3,190.5,163.4,190.5z"/>
	<g>
		<g>
			<path class="st1" d="M153.1,126.6l2.3-1.2c1.8-0.9,3.3-2.5,4.2-4.4c2.8-6,4.8-12.4,5.8-19.2c0.5-3.1-0.6-6.1-2.8-8l-1.5-1.3
				c-3.3-2.8-5.9-6.5-7.5-10.8l-14.7-39.3c-0.8-2.1-3.4-2.6-4.7-0.8c-0.1,0.1-0.2,0.2-0.2,0.4c-3.1,4.9-7.2,17.3-7.7,18.6
				c0,0.1-0.1,0.2-0.1,0.2c-0.8,1.9-2.5,3.1-4.3,3.1h-21.7H100v0H100H78.2c-1.9,0-3.5-1.2-4.3-3.1c0-0.1-0.1-0.2-0.1-0.2
				c-0.4-1.4-4.5-13.8-7.7-18.6c-0.2-0.2-0.3-0.5-0.5-0.7c-1.3-1.7-3.8-1.2-4.6,0.9L46.2,81.7c-1.6,4.3-4.2,8-7.5,10.8l-1.2,1.1
				c-2.2,1.9-3.3,4.9-2.9,7.9c1,7,3.1,13.6,5.9,19.7c0.9,1.9,2.4,3.4,4.2,4.4l1.9,1c2.3,1.2,4.1,3.4,4.8,6.1l1.2,4.4
				c0.5,1.8,1.4,3.4,2.7,4.7c11.7,11.1,27.4,17.9,44.5,17.9v0c0,0,0,0,0.1,0v0c0,0,0,0,0.1,0v0c17,0,32.4-6.7,44.1-17.5
				c1.3-1.2,2.3-2.9,2.8-4.7l1.3-4.8C149.1,130,150.8,127.7,153.1,126.6z"/>
		</g>
		<path class="st0" d="M107,120H92.8c-1.9,0-3.4,1.7-3.4,3.7v0c0,2.1,1.5,3.7,3.4,3.7H93c1.9,0,3.4,1.7,3.4,3.7v2.4
			c0,2.1,1.5,3.7,3.4,3.7h0.3c1.9,0,3.4-1.7,3.4-3.7v-2.4c0-2.1,1.5-3.7,3.4-3.7h0.3c1.9,0,3.4-1.7,3.4-3.7v0
			C110.4,121.7,108.9,120,107,120z"/>
		<g>
			<g>
				<g>
					<path class="st0" d="M113,105.8l30.8-8.8c1.9-0.5,3.4,1.6,2.6,3.5c-2.4,5.4-7.6,13.7-17.8,14.9c-9.6,1.1-14.5-2.6-16.7-5.5
						C110.8,108.5,111.4,106.3,113,105.8z"/>
				</g>
				<g>
					<path class="st0" d="M86.8,105.8L56,97c-1.9-0.5-3.4,1.6-2.6,3.5c2.4,5.4,7.6,13.7,17.8,14.9c9.6,1.1,14.5-2.6,16.7-5.5
						C89,108.5,88.4,106.3,86.8,105.8z"/>
				</g>
			</g>
		</g>
	</g>
</g>
</svg>
